<mxfile host="app.diagrams.net" agent="Mozilla/5.0 (Windows NT 10.0; Win64; x64; rv:138.0) Gecko/20100101 Firefox/138.0" version="27.0.6">
  <diagram name="Сторінка-1" id="Bu3yCZcyRtmO8vV5ZE0F">
    <mxGraphModel dx="1426" dy="821" grid="1" gridSize="10" guides="1" tooltips="1" connect="1" arrows="1" fold="1" page="1" pageScale="1" pageWidth="827" pageHeight="1169" math="0" shadow="0">
      <root>
        <mxCell id="0" />
        <mxCell id="1" parent="0" />
        <mxCell id="iBRwoHVwdoJSEmxD0py--1" value="AWS Cloud" style="points=[[0,0],[0.25,0],[0.5,0],[0.75,0],[1,0],[1,0.25],[1,0.5],[1,0.75],[1,1],[0.75,1],[0.5,1],[0.25,1],[0,1],[0,0.75],[0,0.5],[0,0.25]];outlineConnect=0;gradientColor=none;html=1;whiteSpace=wrap;fontSize=12;fontStyle=0;container=1;pointerEvents=0;collapsible=0;recursiveResize=0;shape=mxgraph.aws4.group;grIcon=mxgraph.aws4.group_aws_cloud_alt;strokeColor=#232F3E;fillColor=none;verticalAlign=top;align=left;spacingLeft=30;fontColor=#232F3E;dashed=0;" parent="1" vertex="1">
          <mxGeometry x="10" y="70" width="810" height="1570" as="geometry" />
        </mxCell>
        <mxCell id="vQ-OvHwKWLwVCTqBm5JM-14" style="edgeStyle=orthogonalEdgeStyle;rounded=0;orthogonalLoop=1;jettySize=auto;html=1;exitX=0.5;exitY=1;exitDx=0;exitDy=0;exitPerimeter=0;" parent="iBRwoHVwdoJSEmxD0py--1" source="iBRwoHVwdoJSEmxD0py--3" target="iBRwoHVwdoJSEmxD0py--5" edge="1">
          <mxGeometry relative="1" as="geometry">
            <mxPoint x="40" y="330" as="sourcePoint" />
            <mxPoint x="119" y="551" as="targetPoint" />
            <Array as="points">
              <mxPoint x="111" y="330" />
            </Array>
          </mxGeometry>
        </mxCell>
        <mxCell id="vQ-OvHwKWLwVCTqBm5JM-23" style="edgeStyle=orthogonalEdgeStyle;rounded=0;orthogonalLoop=1;jettySize=auto;html=1;exitX=0.5;exitY=1;exitDx=0;exitDy=0;exitPerimeter=0;" parent="iBRwoHVwdoJSEmxD0py--1" source="iBRwoHVwdoJSEmxD0py--3" target="vQ-OvHwKWLwVCTqBm5JM-21" edge="1">
          <mxGeometry relative="1" as="geometry">
            <Array as="points">
              <mxPoint x="111" y="650" />
            </Array>
          </mxGeometry>
        </mxCell>
        <mxCell id="vQ-OvHwKWLwVCTqBm5JM-35" style="edgeStyle=orthogonalEdgeStyle;rounded=0;orthogonalLoop=1;jettySize=auto;html=1;" parent="iBRwoHVwdoJSEmxD0py--1" source="iBRwoHVwdoJSEmxD0py--3" target="vQ-OvHwKWLwVCTqBm5JM-29" edge="1">
          <mxGeometry relative="1" as="geometry">
            <Array as="points">
              <mxPoint x="110" y="1129" />
            </Array>
          </mxGeometry>
        </mxCell>
        <mxCell id="iBRwoHVwdoJSEmxD0py--3" value="" style="sketch=0;points=[[0,0,0],[0.25,0,0],[0.5,0,0],[0.75,0,0],[1,0,0],[0,1,0],[0.25,1,0],[0.5,1,0],[0.75,1,0],[1,1,0],[0,0.25,0],[0,0.5,0],[0,0.75,0],[1,0.25,0],[1,0.5,0],[1,0.75,0]];points=[[0,0,0],[0.25,0,0],[0.5,0,0],[0.75,0,0],[1,0,0],[0,1,0],[0.25,1,0],[0.5,1,0],[0.75,1,0],[1,1,0],[0,0.25,0],[0,0.5,0],[0,0.75,0],[1,0.25,0],[1,0.5,0],[1,0.75,0]];outlineConnect=0;fontColor=#232F3E;fillColor=#E7157B;strokeColor=#ffffff;dashed=0;verticalLabelPosition=bottom;verticalAlign=top;align=center;html=1;fontSize=12;fontStyle=0;aspect=fixed;shape=mxgraph.aws4.resourceIcon;resIcon=mxgraph.aws4.organizations;" parent="iBRwoHVwdoJSEmxD0py--1" vertex="1">
          <mxGeometry x="72" y="50" width="78" height="78" as="geometry" />
        </mxCell>
        <mxCell id="vQ-OvHwKWLwVCTqBm5JM-19" style="edgeStyle=orthogonalEdgeStyle;rounded=0;orthogonalLoop=1;jettySize=auto;html=1;" parent="iBRwoHVwdoJSEmxD0py--1" edge="1">
          <mxGeometry relative="1" as="geometry">
            <mxPoint x="230" y="368" as="sourcePoint" />
            <mxPoint x="351" y="410" as="targetPoint" />
            <Array as="points">
              <mxPoint x="230" y="410" />
            </Array>
          </mxGeometry>
        </mxCell>
        <mxCell id="vQ-OvHwKWLwVCTqBm5JM-20" style="edgeStyle=orthogonalEdgeStyle;rounded=0;orthogonalLoop=1;jettySize=auto;html=1;exitX=0.519;exitY=1.026;exitDx=0;exitDy=0;exitPerimeter=0;" parent="iBRwoHVwdoJSEmxD0py--1" source="iBRwoHVwdoJSEmxD0py--5" target="vQ-OvHwKWLwVCTqBm5JM-17" edge="1">
          <mxGeometry relative="1" as="geometry">
            <mxPoint x="110" y="530" as="sourcePoint" />
            <mxPoint x="231" y="691" as="targetPoint" />
            <Array as="points">
              <mxPoint x="231" y="529" />
            </Array>
          </mxGeometry>
        </mxCell>
        <mxCell id="iBRwoHVwdoJSEmxD0py--5" value="" style="sketch=0;outlineConnect=0;fontColor=#232F3E;gradientColor=none;fillColor=#E7157B;strokeColor=none;dashed=0;verticalLabelPosition=bottom;verticalAlign=top;align=center;html=1;fontSize=12;fontStyle=0;aspect=fixed;pointerEvents=1;shape=mxgraph.aws4.organizations_organizational_unit2;" parent="iBRwoHVwdoJSEmxD0py--1" vertex="1">
          <mxGeometry x="190" y="290" width="78" height="78" as="geometry" />
        </mxCell>
        <mxCell id="iBRwoHVwdoJSEmxD0py--6" value="" style="sketch=0;outlineConnect=0;fontColor=#232F3E;gradientColor=none;fillColor=#E7157B;strokeColor=none;dashed=0;verticalLabelPosition=bottom;verticalAlign=top;align=center;html=1;fontSize=12;fontStyle=0;aspect=fixed;pointerEvents=1;shape=mxgraph.aws4.organizations_account2;" parent="iBRwoHVwdoJSEmxD0py--1" vertex="1">
          <mxGeometry x="350" y="372" width="78" height="78" as="geometry" />
        </mxCell>
        <mxCell id="vQ-OvHwKWLwVCTqBm5JM-2" value="Security OU" style="text;html=1;align=center;verticalAlign=middle;resizable=0;points=[];autosize=1;strokeColor=none;fillColor=none;" parent="iBRwoHVwdoJSEmxD0py--1" vertex="1">
          <mxGeometry x="270" y="314" width="90" height="30" as="geometry" />
        </mxCell>
        <mxCell id="vQ-OvHwKWLwVCTqBm5JM-15" value="&lt;div&gt;Log Archive&lt;/div&gt;" style="text;html=1;align=center;verticalAlign=middle;resizable=0;points=[];autosize=1;strokeColor=none;fillColor=none;" parent="iBRwoHVwdoJSEmxD0py--1" vertex="1">
          <mxGeometry x="430" y="396" width="90" height="30" as="geometry" />
        </mxCell>
        <mxCell id="vQ-OvHwKWLwVCTqBm5JM-17" value="" style="sketch=0;outlineConnect=0;fontColor=#232F3E;gradientColor=none;fillColor=#E7157B;strokeColor=none;dashed=0;verticalLabelPosition=bottom;verticalAlign=top;align=center;html=1;fontSize=12;fontStyle=0;aspect=fixed;pointerEvents=1;shape=mxgraph.aws4.organizations_account2;" parent="iBRwoHVwdoJSEmxD0py--1" vertex="1">
          <mxGeometry x="350" y="490" width="78" height="78" as="geometry" />
        </mxCell>
        <mxCell id="vQ-OvHwKWLwVCTqBm5JM-18" value="Security Tooling" style="text;html=1;align=center;verticalAlign=middle;resizable=0;points=[];autosize=1;strokeColor=none;fillColor=none;" parent="iBRwoHVwdoJSEmxD0py--1" vertex="1">
          <mxGeometry x="430" y="514" width="110" height="30" as="geometry" />
        </mxCell>
        <mxCell id="vQ-OvHwKWLwVCTqBm5JM-31" style="edgeStyle=orthogonalEdgeStyle;rounded=0;orthogonalLoop=1;jettySize=auto;html=1;" parent="iBRwoHVwdoJSEmxD0py--1" source="vQ-OvHwKWLwVCTqBm5JM-21" target="vQ-OvHwKWLwVCTqBm5JM-25" edge="1">
          <mxGeometry relative="1" as="geometry">
            <Array as="points">
              <mxPoint x="231" y="769" />
            </Array>
          </mxGeometry>
        </mxCell>
        <mxCell id="vQ-OvHwKWLwVCTqBm5JM-32" style="edgeStyle=orthogonalEdgeStyle;rounded=0;orthogonalLoop=1;jettySize=auto;html=1;" parent="iBRwoHVwdoJSEmxD0py--1" source="vQ-OvHwKWLwVCTqBm5JM-21" target="vQ-OvHwKWLwVCTqBm5JM-27" edge="1">
          <mxGeometry relative="1" as="geometry">
            <Array as="points">
              <mxPoint x="231" y="889" />
            </Array>
          </mxGeometry>
        </mxCell>
        <mxCell id="vQ-OvHwKWLwVCTqBm5JM-36" style="edgeStyle=orthogonalEdgeStyle;rounded=0;orthogonalLoop=1;jettySize=auto;html=1;" parent="iBRwoHVwdoJSEmxD0py--1" source="vQ-OvHwKWLwVCTqBm5JM-21" target="vQ-OvHwKWLwVCTqBm5JM-33" edge="1">
          <mxGeometry relative="1" as="geometry">
            <Array as="points">
              <mxPoint x="230" y="1009" />
            </Array>
          </mxGeometry>
        </mxCell>
        <mxCell id="vQ-OvHwKWLwVCTqBm5JM-21" value="" style="sketch=0;outlineConnect=0;fontColor=#232F3E;gradientColor=none;fillColor=#E7157B;strokeColor=none;dashed=0;verticalLabelPosition=bottom;verticalAlign=top;align=center;html=1;fontSize=12;fontStyle=0;aspect=fixed;pointerEvents=1;shape=mxgraph.aws4.organizations_organizational_unit2;" parent="iBRwoHVwdoJSEmxD0py--1" vertex="1">
          <mxGeometry x="192" y="610" width="78" height="78" as="geometry" />
        </mxCell>
        <mxCell id="vQ-OvHwKWLwVCTqBm5JM-22" value="Infrastructure OU" style="text;html=1;align=center;verticalAlign=middle;resizable=0;points=[];autosize=1;strokeColor=none;fillColor=none;" parent="iBRwoHVwdoJSEmxD0py--1" vertex="1">
          <mxGeometry x="265" y="634" width="120" height="30" as="geometry" />
        </mxCell>
        <mxCell id="vQ-OvHwKWLwVCTqBm5JM-25" value="" style="sketch=0;outlineConnect=0;fontColor=#232F3E;gradientColor=none;fillColor=#E7157B;strokeColor=none;dashed=0;verticalLabelPosition=bottom;verticalAlign=top;align=center;html=1;fontSize=12;fontStyle=0;aspect=fixed;pointerEvents=1;shape=mxgraph.aws4.organizations_account2;" parent="iBRwoHVwdoJSEmxD0py--1" vertex="1">
          <mxGeometry x="350" y="730" width="78" height="78" as="geometry" />
        </mxCell>
        <mxCell id="vQ-OvHwKWLwVCTqBm5JM-26" value="Identity" style="text;html=1;align=center;verticalAlign=middle;resizable=0;points=[];autosize=1;strokeColor=none;fillColor=none;" parent="iBRwoHVwdoJSEmxD0py--1" vertex="1">
          <mxGeometry x="445" y="754" width="60" height="30" as="geometry" />
        </mxCell>
        <mxCell id="vQ-OvHwKWLwVCTqBm5JM-27" value="" style="sketch=0;outlineConnect=0;fontColor=#232F3E;gradientColor=none;fillColor=#E7157B;strokeColor=none;dashed=0;verticalLabelPosition=bottom;verticalAlign=top;align=center;html=1;fontSize=12;fontStyle=0;aspect=fixed;pointerEvents=1;shape=mxgraph.aws4.organizations_account2;" parent="iBRwoHVwdoJSEmxD0py--1" vertex="1">
          <mxGeometry x="352" y="850" width="78" height="78" as="geometry" />
        </mxCell>
        <mxCell id="vQ-OvHwKWLwVCTqBm5JM-28" value="Networking/Shared Services" style="text;html=1;align=center;verticalAlign=middle;resizable=0;points=[];autosize=1;strokeColor=none;fillColor=none;" parent="iBRwoHVwdoJSEmxD0py--1" vertex="1">
          <mxGeometry x="445" y="874" width="170" height="30" as="geometry" />
        </mxCell>
        <mxCell id="vQ-OvHwKWLwVCTqBm5JM-29" value="" style="sketch=0;outlineConnect=0;fontColor=#232F3E;gradientColor=none;fillColor=#E7157B;strokeColor=none;dashed=0;verticalLabelPosition=bottom;verticalAlign=top;align=center;html=1;fontSize=12;fontStyle=0;aspect=fixed;pointerEvents=1;shape=mxgraph.aws4.organizations_organizational_unit2;" parent="iBRwoHVwdoJSEmxD0py--1" vertex="1">
          <mxGeometry x="192" y="1090" width="78" height="78" as="geometry" />
        </mxCell>
        <mxCell id="vQ-OvHwKWLwVCTqBm5JM-30" value="Workloads OU" style="text;html=1;align=center;verticalAlign=middle;resizable=0;points=[];autosize=1;strokeColor=none;fillColor=none;" parent="iBRwoHVwdoJSEmxD0py--1" vertex="1">
          <mxGeometry x="270" y="1114" width="100" height="30" as="geometry" />
        </mxCell>
        <mxCell id="vQ-OvHwKWLwVCTqBm5JM-33" value="" style="sketch=0;outlineConnect=0;fontColor=#232F3E;gradientColor=none;fillColor=#E7157B;strokeColor=none;dashed=0;verticalLabelPosition=bottom;verticalAlign=top;align=center;html=1;fontSize=12;fontStyle=0;aspect=fixed;pointerEvents=1;shape=mxgraph.aws4.organizations_account2;" parent="iBRwoHVwdoJSEmxD0py--1" vertex="1">
          <mxGeometry x="352" y="970" width="78" height="78" as="geometry" />
        </mxCell>
        <mxCell id="vQ-OvHwKWLwVCTqBm5JM-34" value="Backup" style="text;html=1;align=center;verticalAlign=middle;resizable=0;points=[];autosize=1;strokeColor=none;fillColor=none;" parent="iBRwoHVwdoJSEmxD0py--1" vertex="1">
          <mxGeometry x="445" y="988" width="60" height="30" as="geometry" />
        </mxCell>
        <mxCell id="4RDoN1khked4_0GlNfcL-1" value="&lt;span id=&quot;docs-internal-guid-47279395-7fff-cd68-6453-2887a5b87c39&quot; style=&quot;font-size: 11pt; font-family: &amp;quot;Google Sans Text&amp;quot;, sans-serif; color: rgb(0, 0, 0); background-color: transparent; font-weight: 700; font-style: normal; font-variant: normal; text-decoration: none; vertical-align: baseline; white-space: pre-wrap;&quot;&gt;Management Account&lt;/span&gt;" style="text;html=1;align=center;verticalAlign=middle;resizable=0;points=[];autosize=1;strokeColor=none;fillColor=none;" vertex="1" parent="iBRwoHVwdoJSEmxD0py--1">
          <mxGeometry x="150" y="60" width="180" height="30" as="geometry" />
        </mxCell>
        <mxCell id="vQ-OvHwKWLwVCTqBm5JM-37" value="" style="sketch=0;outlineConnect=0;fontColor=#232F3E;gradientColor=none;fillColor=#E7157B;strokeColor=none;dashed=0;verticalLabelPosition=bottom;verticalAlign=top;align=center;html=1;fontSize=12;fontStyle=0;aspect=fixed;pointerEvents=1;shape=mxgraph.aws4.organizations_account2;" parent="1" vertex="1">
          <mxGeometry x="360" y="1280" width="78" height="78" as="geometry" />
        </mxCell>
        <mxCell id="vQ-OvHwKWLwVCTqBm5JM-38" value="Dev" style="text;html=1;align=center;verticalAlign=middle;resizable=0;points=[];autosize=1;strokeColor=none;fillColor=none;" parent="1" vertex="1">
          <mxGeometry x="465" y="1304" width="40" height="30" as="geometry" />
        </mxCell>
        <mxCell id="vQ-OvHwKWLwVCTqBm5JM-39" value="" style="sketch=0;outlineConnect=0;fontColor=#232F3E;gradientColor=none;fillColor=#E7157B;strokeColor=none;dashed=0;verticalLabelPosition=bottom;verticalAlign=top;align=center;html=1;fontSize=12;fontStyle=0;aspect=fixed;pointerEvents=1;shape=mxgraph.aws4.organizations_account2;" parent="1" vertex="1">
          <mxGeometry x="362" y="1400" width="78" height="78" as="geometry" />
        </mxCell>
        <mxCell id="vQ-OvHwKWLwVCTqBm5JM-40" value="Testing" style="text;html=1;align=center;verticalAlign=middle;resizable=0;points=[];autosize=1;strokeColor=none;fillColor=none;" parent="1" vertex="1">
          <mxGeometry x="455" y="1424" width="60" height="30" as="geometry" />
        </mxCell>
        <mxCell id="vQ-OvHwKWLwVCTqBm5JM-41" value="" style="sketch=0;outlineConnect=0;fontColor=#232F3E;gradientColor=none;fillColor=#E7157B;strokeColor=none;dashed=0;verticalLabelPosition=bottom;verticalAlign=top;align=center;html=1;fontSize=12;fontStyle=0;aspect=fixed;pointerEvents=1;shape=mxgraph.aws4.organizations_account2;" parent="1" vertex="1">
          <mxGeometry x="362" y="1520" width="78" height="78" as="geometry" />
        </mxCell>
        <mxCell id="vQ-OvHwKWLwVCTqBm5JM-42" value="Prod" style="text;html=1;align=center;verticalAlign=middle;resizable=0;points=[];autosize=1;strokeColor=none;fillColor=none;" parent="1" vertex="1">
          <mxGeometry x="460" y="1538" width="50" height="30" as="geometry" />
        </mxCell>
        <mxCell id="vQ-OvHwKWLwVCTqBm5JM-43" style="edgeStyle=orthogonalEdgeStyle;rounded=0;orthogonalLoop=1;jettySize=auto;html=1;" parent="1" source="vQ-OvHwKWLwVCTqBm5JM-29" target="vQ-OvHwKWLwVCTqBm5JM-37" edge="1">
          <mxGeometry relative="1" as="geometry">
            <Array as="points">
              <mxPoint x="240" y="1319" />
            </Array>
          </mxGeometry>
        </mxCell>
        <mxCell id="vQ-OvHwKWLwVCTqBm5JM-44" style="edgeStyle=orthogonalEdgeStyle;rounded=0;orthogonalLoop=1;jettySize=auto;html=1;" parent="1" source="vQ-OvHwKWLwVCTqBm5JM-29" target="vQ-OvHwKWLwVCTqBm5JM-39" edge="1">
          <mxGeometry relative="1" as="geometry">
            <Array as="points">
              <mxPoint x="240" y="1439" />
            </Array>
          </mxGeometry>
        </mxCell>
        <mxCell id="vQ-OvHwKWLwVCTqBm5JM-45" style="edgeStyle=orthogonalEdgeStyle;rounded=0;orthogonalLoop=1;jettySize=auto;html=1;" parent="1" source="vQ-OvHwKWLwVCTqBm5JM-29" target="vQ-OvHwKWLwVCTqBm5JM-41" edge="1">
          <mxGeometry relative="1" as="geometry">
            <Array as="points">
              <mxPoint x="241" y="1559" />
            </Array>
          </mxGeometry>
        </mxCell>
      </root>
    </mxGraphModel>
  </diagram>
</mxfile>
